<?xml version="1.0" standalone="no"?>
<!DOCTYPE svg PUBLIC "-//W3C//DTD SVG 20010904//EN"
 "http://www.w3.org/TR/2001/REC-SVG-20010904/DTD/svg10.dtd">
<svg version="1.0" xmlns="http://www.w3.org/2000/svg"
 width="1920.000000pt" height="1080.000000pt" viewBox="0 0 1920.000000 1080.000000"
 preserveAspectRatio="xMidYMid meet">

<g transform="translate(0.000000,1080.000000) scale(0.100000,-0.100000)"
fill="#000000" stroke="none">
<path d="M5189 7000 c-421 -41 -759 -219 -977 -515 -142 -193 -246 -468 -288
-761 -19 -136 -22 -456 -4 -600 68 -563 320 -973 725 -1176 408 -206 1030
-207 1436 -3 242 122 445 332 569 588 176 367 225 897 124 1356 -137 617 -519
997 -1104 1095 -115 19 -364 28 -481 16z m366 -640 c333 -85 520 -395 542
-895 15 -356 -75 -666 -246 -848 -147 -157 -395 -228 -638 -182 -294 55 -493
302 -560 693 -23 136 -23 436 0 559 68 370 247 602 519 673 103 27 278 27 383
0z"/>
<path d="M10999 7000 c-506 -49 -926 -318 -1167 -748 -91 -163 -148 -321 -189
-527 -14 -72 -18 -138 -18 -325 1 -216 3 -245 28 -361 48 -226 129 -423 246
-599 73 -111 248 -291 359 -370 198 -141 448 -234 708 -264 165 -19 256 -20
431 -5 350 29 622 133 806 307 l37 36 0 628 0 628 -365 0 -365 0 0 -490 0
-489 -37 -11 c-217 -61 -411 -48 -599 40 -99 46 -170 97 -250 181 -183 194
-273 444 -276 769 -3 321 91 565 289 750 289 270 783 317 1149 109 80 -45 213
-162 255 -223 l23 -34 77 226 c41 125 90 262 106 305 l31 77 -62 56 c-231 211
-562 325 -981 338 -82 2 -189 1 -236 -4z"/>
<path d="M13830 6999 c-702 -68 -1230 -573 -1350 -1294 -20 -115 -22 -155 -17
-345 6 -223 19 -317 67 -481 69 -234 211 -477 375 -643 370 -375 890 -516
1492 -406 265 49 521 170 662 314 l54 54 -49 129 c-26 70 -73 206 -103 301
l-56 173 -56 -69 c-31 -37 -87 -92 -125 -120 -385 -293 -984 -255 -1292 82
-58 64 -76 118 -70 210 5 83 38 134 124 191 106 72 246 105 452 105 160 0 262
-18 395 -69 98 -38 128 -54 199 -102 32 -22 60 -39 63 -39 3 0 5 160 5 355 l0
354 -35 35 c-42 43 -155 97 -250 122 -102 27 -312 24 -418 -4 -354 -96 -593
-413 -614 -812 l-6 -115 -19 44 c-51 120 -85 353 -74 508 20 286 100 479 270
649 128 128 256 197 441 240 106 24 347 25 452 1 210 -48 428 -183 528 -327
l27 -39 83 242 c45 133 93 271 106 306 l24 64 -60 53 c-72 65 -167 130 -255
174 -255 128 -638 191 -970 159z"/>
<path d="M16350 6999 c-480 -49 -883 -291 -1034 -620 -56 -123 -71 -197 -70
-344 3 -258 65 -420 223 -581 138 -140 338 -241 669 -340 444 -132 538 -170
610 -247 113 -124 65 -294 -108 -382 -114 -58 -325 -73 -476 -35 -93 24 -218
81 -306 141 -76 52 -220 195 -268 266 -19 29 -37 53 -40 53 -3 0 -23 -33 -44
-73 -54 -99 -150 -242 -246 -366 l-81 -103 27 -56 c35 -71 144 -186 240 -252
279 -193 637 -287 999 -262 532 37 908 249 1076 606 116 249 107 594 -24 816
-48 82 -179 207 -277 264 -109 64 -263 126 -425 171 -375 104 -455 129 -529
164 -102 47 -138 78 -170 143 -64 128 -4 259 150 332 127 60 348 72 518 27
141 -37 388 -173 466 -256 13 -14 27 -25 32 -25 4 0 17 19 29 43 41 79 112
192 220 348 60 86 110 161 111 167 7 23 -262 211 -379 264 -258 117 -587 168
-893 137z"/>
<path d="M1180 6913 c16 -26 40 -84 52 -128 l23 -80 3 -1240 c2 -893 0 -1267
-8 -1335 -13 -107 -39 -193 -75 -251 l-25 -39 759 0 c823 0 885 3 1087 56 225
58 424 179 545 330 142 178 204 393 180 623 -26 251 -123 432 -292 547 -89 60
-164 90 -264 106 l-73 11 81 41 c118 58 238 178 295 296 60 121 77 194 76 325
0 123 -14 201 -51 289 -96 229 -288 383 -583 468 -74 22 -90 22 -917 25 l-843
4 30 -48z m1461 -591 c97 -47 158 -135 167 -238 9 -119 -53 -226 -166 -281
l-57 -28 -297 -3 -298 -3 0 291 0 291 303 -3 c291 -3 304 -4 348 -26z m45
-1143 c86 -16 178 -64 229 -121 59 -65 80 -130 80 -243 0 -78 -4 -98 -29 -153
-32 -70 -81 -119 -155 -157 -98 -49 -149 -55 -498 -55 l-323 0 0 370 0 370
318 0 c185 0 343 -5 378 -11z"/>
<path d="M7040 6913 c16 -26 40 -86 52 -133 l23 -85 0 -1295 0 -1295 -23 -85
c-12 -47 -35 -106 -52 -132 l-29 -48 469 0 c259 0 470 3 470 6 0 3 -9 17 -20
31 -28 36 -56 117 -69 203 -9 53 -11 279 -9 776 l3 701 270 -746 c248 -688
269 -752 273 -823 3 -57 0 -85 -12 -109 -9 -18 -16 -34 -16 -36 0 -1 237 -3
526 -3 l526 0 -56 51 c-30 27 -76 79 -101 115 -56 78 -158 271 -218 414 -58
135 -260 670 -256 675 2 1 41 17 86 35 381 146 604 526 554 940 -16 132 -35
200 -86 307 -116 246 -318 419 -610 520 -168 58 -138 56 -962 60 l-763 4 30
-48z m1471 -610 c109 -54 176 -147 200 -277 22 -118 -11 -225 -99 -318 -101
-108 -181 -128 -514 -128 l-248 0 0 381 0 380 298 -3 297 -3 66 -32z"/>
</g>
</svg>
