<?xml version="1.0" standalone="no"?>
<!DOCTYPE svg PUBLIC "-//W3C//DTD SVG 20010904//EN"
 "http://www.w3.org/TR/2001/REC-SVG-20010904/DTD/svg10.dtd">
<svg version="1.0" xmlns="http://www.w3.org/2000/svg"
 width="1080.000000pt" height="1080.000000pt" viewBox="0 0 1080.000000 1080.000000"
 preserveAspectRatio="xMidYMid meet">

<g transform="translate(0.000000,1080.000000) scale(0.100000,-0.100000)"
fill="#000000" stroke="none">
<path d="M6025 10696 c-28 -12 -80 -48 -116 -79 -109 -93 -194 -145 -283 -175
-83 -29 -85 -29 -272 -24 -307 8 -697 -24 -1021 -83 -278 -51 -680 -162 -902
-250 -36 -14 -66 -23 -69 -20 -2 2 8 18 22 36 69 81 85 175 38 221 -29 29
-106 36 -148 13 -41 -22 -210 -237 -265 -338 -22 -39 -46 -79 -54 -88 -8 -8
-15 -20 -15 -25 0 -5 -46 -34 -102 -64 -618 -326 -1170 -779 -1561 -1282 -33
-43 -63 -78 -67 -78 -4 0 1 39 11 86 20 91 18 116 -12 175 -20 40 -65 65 -98
54 -30 -9 -69 -60 -81 -106 -7 -26 -9 -113 -4 -257 l6 -217 -75 -127 c-238
-397 -433 -892 -532 -1349 -15 -68 -33 -131 -41 -139 -12 -12 -14 -12 -14 7 0
37 -39 130 -67 157 -46 46 -111 27 -139 -41 -20 -46 -7 -90 66 -228 32 -60 70
-145 84 -187 23 -71 24 -85 16 -160 -41 -366 -31 -825 26 -1233 10 -71 14
-135 9 -181 l-6 -71 -53 53 c-74 74 -139 85 -179 32 -19 -26 -20 -28 -3 -72
23 -61 87 -116 195 -171 110 -55 126 -76 165 -225 79 -297 198 -612 341 -907
65 -133 88 -190 75 -183 -10 6 -36 10 -58 10 -52 0 -77 -26 -68 -74 10 -54 84
-113 200 -161 l96 -40 56 -85 c166 -250 340 -465 551 -681 l144 -147 -37 -7
c-82 -15 -123 -105 -70 -154 19 -18 43 -25 108 -32 45 -5 123 -14 173 -20 l89
-11 129 -94 c70 -51 180 -126 244 -166 107 -68 117 -77 138 -125 16 -34 33
-57 54 -67 37 -20 49 -20 84 -1 27 14 33 12 147 -45 136 -68 353 -162 487
-209 79 -28 95 -38 113 -68 32 -55 112 -79 158 -47 21 15 32 13 157 -21 131
-35 453 -105 487 -105 9 0 29 -12 43 -26 24 -24 31 -25 83 -20 99 11 124 11
272 -4 183 -19 722 -20 905 -2 899 88 1691 373 2360 849 105 75 125 96 118
123 -10 37 -40 34 -100 -13 -161 -123 -393 -267 -618 -383 -821 -423 -1810
-600 -2755 -493 -92 10 -96 12 -131 50 -49 52 -99 56 -135 12 l-21 -25 -139
26 c-142 28 -448 102 -473 116 -7 4 -23 31 -35 61 -26 67 -60 87 -115 70 -21
-6 -47 -21 -60 -35 l-22 -24 -87 33 c-140 52 -257 102 -413 177 l-147 70 6 63
c4 61 3 65 -26 94 -23 24 -39 31 -69 31 -39 0 -115 -29 -127 -49 -10 -16 -182
94 -391 250 -103 77 -120 104 -135 212 -14 100 -27 132 -61 162 -58 48 -149
18 -149 -50 0 -14 -4 -25 -9 -25 -13 0 -204 201 -315 330 -117 138 -239 299
-336 445 -97 147 -103 161 -84 214 35 103 35 221 0 290 -17 33 -62 71 -82 71
-30 0 -74 -54 -82 -99 l-7 -45 -69 144 c-127 267 -243 585 -320 880 -45 170
-46 204 -5 260 47 65 69 119 69 174 0 104 -73 184 -144 158 -16 -7 -32 -10
-34 -7 -8 7 -30 216 -43 390 -14 195 -6 677 14 845 11 92 16 111 46 155 59 86
119 161 165 207 57 58 78 99 83 173 5 55 3 62 -22 88 -32 32 -88 37 -135 12
-39 -20 -39 -20 5 141 108 396 276 798 469 1122 72 120 92 139 181 168 28 9
121 52 207 96 168 84 199 111 219 184 9 31 8 41 -8 62 -38 51 -70 67 -133 66
l-59 -1 42 51 c288 345 715 703 1157 968 143 86 371 208 389 208 6 0 89 -28
184 -62 152 -55 180 -62 240 -61 105 2 163 20 208 63 34 32 39 43 39 81 0 63
-29 105 -93 134 -28 14 -68 25 -88 25 -20 0 -39 3 -43 7 -15 15 369 137 619
197 436 103 806 142 1273 134 l283 -5 31 -29 c17 -16 55 -64 85 -107 74 -104
139 -174 212 -227 91 -67 158 -85 215 -59 36 17 59 71 51 119 -10 60 -60 155
-104 199 -23 23 -39 41 -36 41 25 0 319 -69 430 -100 410 -117 830 -309 1204
-550 99 -64 108 -72 118 -112 34 -121 189 -328 246 -328 33 0 66 31 74 70 3
17 9 30 13 30 15 0 204 -172 329 -299 218 -222 425 -474 594 -726 104 -154
236 -373 244 -404 3 -13 0 -60 -6 -105 -15 -98 -3 -161 39 -206 35 -38 71 -39
99 -4 l21 26 35 -78 c149 -325 285 -745 355 -1097 l21 -108 -47 -69 c-39 -57
-48 -80 -52 -125 -8 -94 46 -136 111 -85 l25 20 6 -33 c30 -170 40 -719 17
-942 -27 -266 -29 -274 -80 -333 -73 -84 -91 -113 -91 -148 0 -41 22 -64 61
-64 24 0 29 -4 25 -17 -3 -10 -19 -74 -36 -143 -36 -143 -83 -292 -147 -467
-37 -102 -48 -122 -68 -127 -36 -9 -58 -59 -52 -115 5 -41 -2 -58 -65 -186
-76 -152 -174 -327 -250 -444 -32 -50 -54 -76 -69 -78 -12 -2 -29 -9 -37 -16
-22 -18 -42 -71 -36 -94 6 -23 -112 -187 -266 -368 -82 -97 -96 -110 -121
-107 -38 4 -87 -23 -95 -53 -3 -14 -4 -39 -2 -55 4 -28 -6 -40 -106 -138 -425
-410 -825 -696 -1328 -947 -593 -296 -1220 -466 -1861 -504 -92 -6 -172 -13
-177 -16 -15 -9 -12 -51 5 -65 28 -23 458 12 740 61 960 167 1919 667 2654
1385 113 110 154 144 174 144 29 0 57 32 57 66 0 13 44 73 109 149 61 71 149
181 198 246 49 66 95 118 105 119 46 1 78 42 78 100 0 22 24 71 79 158 87 141
199 344 258 467 26 55 44 81 58 84 66 12 98 78 77 157 -10 38 -8 50 32 155 74
195 196 619 196 681 0 17 4 16 37 -7 47 -31 87 -32 107 -3 32 45 17 103 -47
187 -49 64 -49 66 -29 256 22 198 21 750 -1 940 -9 77 -14 141 -13 142 2 2 14
-5 28 -16 13 -11 40 -22 60 -26 92 -17 58 96 -61 207 l-68 63 -23 120 c-69
361 -213 794 -391 1177 -38 82 -69 152 -69 156 0 5 28 -5 62 -22 74 -37 135
-41 167 -12 12 11 21 27 21 36 0 37 -125 107 -266 149 -39 11 -78 29 -86 38
-9 10 -44 65 -79 123 -295 495 -680 948 -1106 1303 -73 61 -133 114 -133 117
0 4 23 3 51 -3 80 -16 185 7 226 48 43 43 46 96 8 121 -22 15 -50 16 -240 9
-118 -4 -217 -11 -220 -15 -11 -17 -65 7 -170 75 -362 238 -752 416 -1179 540
-158 45 -423 104 -563 125 -46 7 -83 15 -83 19 0 4 26 12 58 19 61 13 163 59
199 90 32 28 73 92 73 114 0 59 -73 118 -147 118 -21 0 -61 -11 -88 -24z m123
-68 c-5 -14 -155 -101 -201 -118 -34 -11 -33 -11 33 42 85 68 179 111 168 76z
m-9 -94 c-12 -15 -81 -54 -96 -54 -7 0 98 69 106 70 2 0 -2 -7 -10 -16z m-195
-317 c70 -47 133 -103 148 -130 14 -27 1 -19 -112 76 -106 89 -135 115 -110
102 8 -5 42 -26 74 -48z m-2654 29 c0 -2 -8 -10 -17 -17 -16 -13 -17 -12 -4 4
13 16 21 21 21 13z m61 -43 c-15 -25 -33 -46 -56 -63 -11 -8 -2 6 19 33 39 48
55 61 37 30z m2612 -126 c96 -78 140 -93 185 -61 21 15 22 14 22 -15 0 -84
-135 -30 -260 105 -48 52 -38 46 53 -29z m2270 -564 c-13 -2 -33 -2 -45 0 -13
2 -3 4 22 4 25 0 35 -2 23 -4z m-7713 -4693 c8 -5 11 -10 5 -10 -5 0 -17 5
-25 10 -8 5 -10 10 -5 10 6 0 17 -5 25 -10z m540 -1489 c15 -29 12 -33 -12
-19 -13 7 -25 14 -27 15 -6 3 10 23 19 23 5 0 14 -9 20 -19z m799 -1417 c2 -2
-7 -4 -22 -4 -14 0 -29 5 -32 10 -6 10 42 4 54 -6z m841 -454 c0 -5 -4 -10 -9
-10 -6 0 -13 5 -16 10 -3 6 1 10 9 10 9 0 16 -4 16 -10z m860 -380 c0 -5 -5
-10 -11 -10 -5 0 -7 5 -4 10 3 6 8 10 11 10 2 0 4 -4 4 -10z"/>
<path d="M4625 8464 c-249 -13 -1141 -46 -1295 -47 -102 -1 -255 2 -341 6
l-157 9 -12 -37 c-7 -21 -10 -61 -8 -90 8 -92 61 -142 192 -179 79 -23 153
-96 185 -181 58 -153 56 -109 56 -1480 l0 -1260 -22 -87 c-43 -168 -107 -248
-231 -289 -132 -44 -183 -100 -181 -201 1 -103 -47 -93 465 -93 312 0 551 -6
784 -19 464 -27 1190 -28 1410 -3 555 63 890 186 1135 417 44 42 97 85 119 95
85 44 133 141 140 283 3 48 9 111 15 141 6 29 11 72 11 94 l0 41 33 -31 c17
-17 59 -49 92 -71 205 -138 401 -108 445 70 23 92 -32 199 -137 266 -82 52
-171 74 -325 79 -110 5 -138 9 -143 21 -3 8 -4 15 -3 16 2 1 48 23 103 50 244
121 337 317 230 487 -59 92 -175 125 -272 75 -80 -40 -146 -135 -187 -266 -10
-30 -19 -61 -22 -68 -3 -10 -12 -5 -32 15 -15 15 -46 45 -69 65 -23 21 -53 55
-67 76 -70 111 -189 174 -294 155 -45 -8 -65 -7 -116 9 -100 32 -296 67 -457
82 -83 8 -153 17 -155 19 -3 2 24 7 58 11 163 18 429 91 543 148 89 45 207
132 265 196 72 79 140 209 172 327 29 110 32 341 5 429 -121 392 -560 642
-1242 706 -117 11 -572 20 -690 14z m216 -325 c186 -94 290 -358 292 -739 1
-180 -16 -277 -67 -385 -59 -125 -150 -201 -320 -266 -45 -17 -91 -40 -103
-51 -46 -43 -54 -138 -20 -220 l15 -35 108 -6 c200 -12 325 -58 414 -153 104
-110 155 -274 169 -547 18 -327 -25 -537 -144 -716 -56 -85 -121 -140 -225
-190 -72 -35 -79 -36 -186 -36 -124 0 -155 10 -182 60 -16 28 -17 158 -20
1610 -2 1101 0 1591 8 1617 17 60 49 78 142 78 60 0 88 -5 119 -21z"/>
<path d="M1660 3474 l0 -416 208 4 207 3 54 30 c30 17 64 46 78 67 34 50 42
142 19 202 -20 53 -81 111 -126 121 l-33 7 44 22 c80 41 111 115 89 213 -9 43
-22 65 -53 97 -59 58 -94 66 -306 66 l-181 0 0 -416z m412 288 c30 -29 33 -38
33 -91 0 -49 -4 -64 -25 -86 -41 -45 -78 -55 -205 -55 l-115 0 0 136 0 136
140 -4 140 -3 32 -33z m-42 -332 c20 -5 51 -25 70 -45 28 -28 34 -44 38 -90 9
-112 -46 -144 -245 -145 l-133 0 0 145 0 145 118 0 c64 0 133 -5 152 -10z"/>
<path d="M5150 3475 l0 -415 180 0 c205 0 262 9 320 51 59 43 83 102 78 189
-5 87 -36 137 -107 173 l-50 25 28 12 c123 50 137 236 25 328 -22 18 -55 37
-74 42 -19 6 -117 10 -217 10 l-183 0 0 -415z m390 310 c57 -30 79 -125 43
-186 -31 -52 -84 -69 -216 -69 l-117 0 0 135 0 135 130 0 c98 0 139 -4 160
-15z m22 -373 c48 -30 83 -99 74 -147 -9 -47 -50 -92 -94 -105 -20 -5 -94 -10
-164 -10 l-128 0 0 138 c0 76 3 142 8 146 4 4 66 6 137 4 115 -3 134 -6 167
-26z"/>
<path d="M2615 3691 c-44 -11 -70 -27 -98 -61 l-26 -30 -3 42 -3 43 -45 0 -45
0 -3 -312 -2 -313 50 0 50 0 0 218 c0 199 2 220 20 250 31 50 75 73 139 70 52
-2 56 0 68 28 19 45 16 52 -24 63 -21 6 -40 10 -43 10 -3 -1 -18 -4 -35 -8z"/>
<path d="M6795 3691 c-44 -11 -70 -27 -98 -61 l-26 -30 -3 42 -3 43 -45 0 -45
0 -3 -312 -2 -313 50 0 50 0 0 218 c0 199 2 220 20 250 31 50 75 73 139 70 52
-2 56 0 68 28 19 45 16 52 -24 63 -21 6 -40 10 -43 10 -3 -1 -18 -4 -35 -8z"/>
<path d="M2837 3683 c-11 -11 -8 -418 4 -473 34 -161 229 -212 347 -92 l42 44
0 -51 0 -51 45 0 45 0 0 315 0 315 -44 0 -45 0 -3 -212 c-3 -238 -9 -259 -78
-305 -45 -31 -126 -32 -165 -1 -50 39 -55 68 -55 303 l0 215 -43 0 c-24 0 -47
-3 -50 -7z"/>
<path d="M3500 3375 l0 -315 50 0 50 0 0 216 c0 201 1 219 21 254 28 50 72 74
135 74 56 0 93 -18 121 -61 16 -23 18 -58 21 -255 l3 -228 51 0 50 0 -4 238
c-3 226 -4 239 -27 285 -34 71 -85 101 -176 105 -85 5 -123 -10 -172 -66 l-33
-37 0 53 0 52 -45 0 -45 0 0 -315z"/>
<path d="M4297 3675 c-49 -18 -85 -47 -114 -91 l-24 -35 35 -14 c49 -21 61
-19 81 11 45 69 184 84 237 25 33 -37 47 -97 27 -117 -8 -7 -65 -20 -129 -29
-179 -25 -250 -67 -265 -154 -20 -122 73 -221 209 -221 80 0 111 11 159 58
l37 36 0 -42 0 -42 45 0 46 0 -3 253 -3 254 -27 40 c-14 22 -43 48 -65 59 -50
24 -192 30 -246 9z m253 -357 c-1 -102 -54 -169 -146 -184 -82 -13 -164 33
-164 92 0 70 41 97 185 118 53 8 100 17 103 20 15 16 22 1 22 -46z"/>
<path d="M6042 3677 c-51 -16 -126 -89 -153 -149 -20 -45 -24 -69 -24 -158 0
-125 22 -186 89 -248 61 -56 119 -76 210 -70 164 11 258 127 258 318 0 199
-106 321 -276 319 -39 -1 -86 -6 -104 -12z m188 -92 c72 -37 113 -163 92 -277
-13 -70 -49 -131 -89 -151 -78 -39 -163 -26 -217 33 -41 46 -56 93 -56 180 0
36 5 82 11 103 13 48 72 114 113 127 39 12 107 5 146 -15z"/>
<path d="M7145 3671 c-103 -47 -158 -150 -158 -298 -1 -83 2 -98 31 -156 48
-97 127 -147 234 -147 65 0 105 18 151 69 l37 41 0 -82 c0 -132 -41 -187 -144
-196 -83 -7 -123 4 -170 48 l-42 39 -37 -25 c-36 -24 -37 -25 -21 -49 9 -13
36 -38 61 -54 133 -89 355 -52 423 69 l25 45 0 355 0 355 -45 0 -45 0 -5 -49
-5 -50 -27 36 c-15 19 -42 43 -61 52 -48 22 -150 21 -202 -3z m209 -89 c17
-10 41 -40 56 -67 21 -42 25 -63 25 -140 0 -80 -3 -95 -27 -136 -33 -56 -76
-79 -148 -79 -89 0 -148 49 -170 141 -31 130 20 263 115 297 39 15 110 7 149
-16z"/>
<path d="M7845 3666 c-112 -53 -176 -183 -162 -331 17 -174 109 -273 263 -283
117 -7 193 23 250 99 33 45 30 55 -17 67 -40 10 -42 9 -78 -28 -72 -76 -196
-75 -268 2 -27 29 -53 89 -53 123 l0 25 226 0 227 0 -5 79 c-10 173 -106 271
-265 271 -51 0 -81 -6 -118 -24z m209 -84 c38 -22 76 -86 76 -129 l0 -33 -175
0 c-197 0 -192 -2 -156 75 22 47 64 88 106 103 39 15 110 7 149 -16z"/>
<path d="M8495 3675 c-138 -49 -165 -229 -44 -298 24 -13 86 -35 137 -47 113
-27 142 -47 142 -99 0 -59 -60 -101 -145 -101 -49 1 -111 34 -126 69 -15 34
-18 35 -71 20 l-38 -10 15 -37 c22 -51 42 -71 100 -98 60 -29 167 -32 237 -9
59 21 114 78 127 133 21 97 -32 168 -152 202 -40 11 -96 27 -124 36 -152 44
-76 196 85 171 26 -4 47 -18 72 -45 33 -37 37 -38 73 -29 20 5 37 15 37 21 0
28 -63 98 -103 117 -51 23 -163 25 -222 4z"/>
</g>
</svg>
